<svg version="1.1" xmlns="http://www.w3.org/2000/svg" x="0" y="0" viewBox="0 0 174 106.8" enable-background="new 0 0 174 106.8" xml:space="preserve"><path fill="#202C55" d="M4.8 63.8C2.2 63.8 0 66 0 68.7c0 2.7 2.2 4.8 4.8 4.8 2.7 0 4.8-2.2 4.8-4.8C9.7 66 7.5 63.8 4.8 63.8M149 71.5c-3.1 0-4.5-1.5-6-3.3l-11.3-14 6.1-5.1c2.5-2.1 4.8-3.7 7.8-3.7 0.6 0 0.8-0.3 0.8-1 0-0.7-0.3-1-0.8-1h-12.8c-0.5 0-0.8 0.3-0.8 1 0 0.7 0.2 1 0.8 1h0.7c2.1 0 2.2 1.4 0.8 2.7l-9.4 7.7V19.6c0-1.5-1-2.1-2.7-1.3l-10.2 5.1c-0.8 0.4-0.7 1.2 0 1.3 1.7 0.3 3.4 0.4 3.4 4.7l0 38.4c0 2.5-1.3 3.6-3 3.6 -1.8 0-3-1.1-3-3.6V41.6c0-1.5-1-2.1-2.7-1.3l-10.2 5.1c-0.8 0.4-0.7 1.2 0 1.3 1.7 0.3 3.4 0.4 3.4 4.7v12.3c0 2.5-2.1 6.2-5.1 6.2 -3.2 0-4.9-2.5-4.9-7.3V45.1c0-1.5-1-2.1-2.7-1.3L77 48.9c-0.8 0.4-0.7 1.2 0 1.3 1.7 0.3 3.4 0.4 3.4 4.7V64c0 7.1 4.5 10.3 9.5 10.3 4.1 0 8.4-1.6 10.6-5.2 0.2 2.7 0.9 4.5 4.4 4.5h22.7c0.6 0 0.8-0.3 0.8-1 0-0.7-0.3-1-0.8-1 -1.8 0-2.6-0.8-2.6-2.9v-11l8.9 12.3c0.9 1.2 0.2 1.7-1 1.7 -0.5 0-0.8 0.3-0.8 1 0 0.7 0.2 1 0.8 1H149c0.6 0 0.8-0.3 0.8-1C149.8 71.8 149.6 71.5 149 71.5M27.1 70.1c-6.5 0-10.5-4.3-10.5-11.3 0-6.9 4.1-11.5 10.3-11.5 2.4 0 4.1 0.4 7.2 1.7l0.6 0.2v-4.3L34.4 45c-3.3-1.1-5.2-1.4-7.7-1.4 -8.4 0-14.2 6.4-14.2 15.6 0 8.8 5.8 14.8 14.3 14.8 2.7 0 4.7-0.4 8-1.5l0.3-0.1v-4.1l-0.6 0.2C31.6 69.7 29.7 70.1 27.1 70.1M51.1 43.5c-8.5 0-14.9 6.5-14.9 15.2 0 8.6 6.4 15.2 14.9 15.2 8.5 0 14.8-6.5 14.8-15.2C65.9 50.1 59.6 43.5 51.1 43.5M51.1 70.1c-6.3 0-10.8-4.8-10.8-11.3 0-6.6 4.6-11.4 10.8-11.4 6.1 0 10.8 4.9 10.8 11.4C61.9 65.2 57.2 70.1 51.1 70.1M120.6 0c-15.4 0-30 6.6-40.1 18.2 -1.2 1.4-1.1 3.4 0.3 4.6 0.6 0.5 1.4 0.8 2.2 0.8 0.9 0 1.8-0.4 2.5-1.1 8.9-10.1 21.7-15.9 35.2-15.9 25.8 0 46.9 21 46.9 46.9 0 25.8-21 46.9-46.9 46.9 -16.1 0-30.9-8.1-39.6-21.8 -1-1.5-3-2-4.5-1 -1.5 1-2 3-1 4.5 9.9 15.5 26.7 24.8 45.1 24.8 29.4 0 53.4-24 53.4-53.4C174 24 150 0 120.6 0M77.6 68.5c0-2.7-2.2-4.8-4.8-4.8 -2.7 0-4.8 2.2-4.8 4.8 0 2.7 2.2 4.8 4.8 4.8C75.4 73.3 77.6 71.1 77.6 68.5"/></svg>