<svg version="1.1" xmlns="http://www.w3.org/2000/svg" x="0" y="0" viewBox="0 0 123.4 35" enable-background="new 0 0 123.4 35" xml:space="preserve"><path fill="#78C044" d="M3.5 17.3l-0.9 0.6 0.8 7.3 1 1 2.9-0.4 -0.7-8.5H3.5zM20.8 0.2L7.9 0 0 9.9l1.9 12 0.7 0L1.7 10.4l6-6.4L20.1 4l7.5 6 -1.1 16.7 -1.6 2.4 -6.5 2.6 -3.2-1L15 30.7l-0.6 2.1 1.4 2.2 2.5 0 7.2-4.9 2.1-3.3L29 9.7 20.8 0.2zM25.9 25l0.5-6.9 -1.1-1 -2.6 0L22 26.3l3.1 0L25.9 25zM35.2 15.4c0 3.3 2.2 5.1 5.8 5.1 3.5 0 5.6-1.7 5.6-4.5 0-3.2-2.9-3.9-5-4.7 -1.3-0.5-1.9-0.9-1.9-1.6 0-0.7 0.6-1.1 1.3-1.1 0.9 0 1.4 0.6 1.4 1.7h4.1c0-2.2-1.4-4.6-5.4-4.6 -2.8 0-5.5 1.1-5.5 4.1 0 2.9 2.6 3.7 4.8 4.6 1.5 0.6 2.1 0.9 2.1 1.7 0 0.7-0.5 1.2-1.4 1.2 -1.1 0-1.7-0.7-1.7-2H35.2zM47.8 15.2c0 3 2.2 5.2 5.8 5.2 3.6 0 5.8-2.2 5.8-5.2V6.1h-4.1v9.1c0 1-0.7 1.8-1.7 1.8s-1.7-0.8-1.7-1.8V6.1h-4.1V15.2zM60.5 20.1h4.1v-3.6h2.5c3.2 0 5.2-2.4 5.2-5.2 0-2.8-2-5.2-5.2-5.2h-6.7V20.1zM66.3 13.3h-1.7v-4h1.7c1.1 0 1.8 0.9 1.8 2C68.2 12.4 67.5 13.3 66.3 13.3zM72.9 20.1H77v-3.6h2.5c3.2 0 5.2-2.4 5.2-5.2 0-2.8-2-5.2-5.2-5.2h-6.7V20.1zM78.7 13.3H77v-4h1.7c1.1 0 1.8 0.9 1.8 2C80.6 12.4 79.8 13.3 78.7 13.3zM92.1 20.5c4.8 0 7.5-3.5 7.5-7.4s-2.8-7.4-7.5-7.4c-4.8 0-7.5 3.5-7.5 7.4S87.4 20.5 92.1 20.5zM92.1 16.7c-2.1 0-3.4-1.7-3.4-3.6s1.3-3.6 3.4-3.6c2.1 0 3.4 1.7 3.4 3.6S94.2 16.7 92.1 16.7zM101.1 20.1h4.1v-3.6h0.8l2.4 3.6h4.9l-2.8-4.3c1.6-0.9 2.5-2.6 2.5-4.5 0-2.8-2-5.2-5.2-5.2h-6.7V20.1zM107 13.3h-1.7v-4h1.7c1.1 0 1.8 0.9 1.8 2C108.8 12.4 108.1 13.3 107 13.3zM116.4 20.1h4.1V9.6h2.9V6.1h-9.8v3.6h2.9V20.1z"/></svg>