<?xml version="1.0" encoding="utf-8"?>
<!-- Generator: Adobe Illustrator 18.1.1, SVG Export Plug-In . SVG Version: 6.00 Build 0)  -->
<!DOCTYPE svg PUBLIC "-//W3C//DTD SVG 1.1//EN" "http://www.w3.org/Graphics/SVG/1.1/DTD/svg11.dtd">
<svg version="1.1" xmlns="http://www.w3.org/2000/svg" xmlns:xlink="http://www.w3.org/1999/xlink" x="0px" y="0px"
	 viewBox="0 0 330 327.7" enable-background="new 0 0 330 327.7" xml:space="preserve">
<g id="v1" display="none">
	<path display="inline" fill="#231F20" d="M285,51.3L176,0L59.7,35.6L0,141.4l10.5,85.9l59,82.6l132,17.8l91.9-60.6l36.7-110
		L285,51.3z M11.9,160.6l-0.7-15.4l14-22.4l14.1,6.4l-6.4,11.2l-11.2,4.2l1.4,7.7l5.6,1.4L11.9,160.6z M59.8,265.5L23,223.9
		l-0.7-11.9l8.4,5.6h9.1l2.3,14.7l12.9,2.5l14.7,4.2L59.8,265.5z M62.3,99.1l-7.7,20.3L39.3,96.4l28.4-49.7l2.6,22l17.9,8.8
		L62.3,99.1z M276.2,184.5l7,22.3l-9.1,1.4l-24.4-25.8L231.5,209l-46.8-40.5l-10.9,24.9l-1.7,7.9l17.5-3.5l-18.2,26.5l-4.2,26.5
		l-14,17.5l-22.3,11.2l-11.2-30.7l4.9-14l-9.1-23.7L89,214.6l-14-21l16.8-30.7h42.6l18.7,1.2l-3.3-5.3L124,141.2L93.2,144l59.4-36.3
		l-4.9-9.1l-22.3,16.1l-14-6.3l37-36.3l40.5,13.3l41.2-0.7L257.3,63l16.1,4.2l36.3,85.2l-13.3,30L276.2,184.5z"/>
</g>
<g id="v2">
	<polygon fill="#333333" points="283.3,50.9 175.8,0.2 61.2,35.4 2.3,139.7 12.6,224.5 70.8,305.9 201,323.5 291.6,263.7 
		327.7,155.2 	"/>
	<polygon fill="#77C043" points="225.5,200.1 229.6,213.4 222.5,203.3 221.2,196.8 	"/>
	<polygon fill="#77C043" points="208.6,194.8 222,223.7 241.7,232.6 256.1,231 236.1,227.7 229.3,218.4 225,211.9 222.2,206.9 
		212.6,195.5 	"/>
	<polygon fill="#77C043" points="236.6,218.3 247.4,220.2 255.9,207.6 251.4,203.9 240.1,208.1 234.3,208.2 	"/>
	<polygon fill="#77C043" points="240.7,267.6 252.6,264.1 252.7,267.3 264.4,262.4 274.6,242.5 269.5,240.7 273.3,234.3 
		267.3,235.1 262.2,242.5 256.1,240.4 246.8,250.8 234.9,254.1 229.5,263.8 224.8,274.2 231.7,271.3 	"/>
	<polygon fill="#77C043" points="62.7,109.3 60.8,108.6 59.4,105.9 57.6,102.7 57.9,99 54.2,98.9 56.2,96.7 52.5,97 51.4,99.3 
		53,102 53,104.6 55.3,104.8 56.8,108.1 54.2,109 52.7,111.4 54.3,112.7 52.2,115.2 56.4,113.4 62.8,113.8 63.1,111 	"/>
	<polygon fill="#77C043" points="52.1,106.1 51.1,103.9 48.8,103.9 47.4,104.7 44.8,106 44.7,107.7 46.8,108 44.5,111.3 46.7,111.7 
		48.2,110.6 51.1,109.8 50.8,107.4 	"/>
	<polygon fill="#77C043" points="189.7,184.3 188.1,184.3 187.2,188.7 188.1,190 191,189.1 	"/>
	<polygon fill="#77C043" points="262.9,137.8 227.1,53.7 211.2,49.6 184.4,70.9 143.7,71.6 103.8,58.5 67.3,94.4 81,100.6 
		103.1,84.7 107.9,93.7 87.7,106 79.7,105.6 73.5,101.2 75.4,107.1 70.3,109.3 65,113.8 60.9,117.2 53.2,118 58.6,123.8 49.3,129.5 
		47.5,138.8 60.3,138.4 69.2,128.2 83,124.3 95.5,140 118.6,140.4 115.1,148.4 90,148.1 48,148.1 31.4,178.4 45.2,199.1 71.4,195.6 
		80.3,219 75.5,232.8 86.5,263.1 108.6,252.1 122.4,234.9 126.5,208.7 144.4,182.5 127.2,186 109.8,155.6 115.6,154.2 131.4,177.5 
		154.5,166.3 150.3,160.2 134.6,151.3 142.3,149.7 159.9,158.9 172.4,161.2 176.6,165.7 177.2,172.7 183.3,186.2 186.2,182.7 
		187.5,174.6 200.9,164.1 203.6,167.4 227.8,192.9 236.7,191.5 229.8,169.4 249.8,167.4 	"/>
</g>
</svg>
