<svg version="1" xmlns="http://www.w3.org/2000/svg" x="0" y="0" viewBox="0 0 330 328" enable-background="new 0 0 330 327.7" xml:space="preserve"><g display="none"><path display="inline" fill="#231F20" d="M285 51L176 0 60 36 0 141l11 86 59 83 132 18 92-61 37-110L285 51zM12 161l-1-15 14-22 14 6 -6 11 -11 4 1 8 6 1L12 161zM60 266L23 224l-1-12 8 6h9l2 15 13 3 15 4L60 266zM62 99l-8 20L39 96l28-50 3 22 18 9L62 99zM276 185l7 22 -9 1 -24-26L232 209l-47-40 -11 25 -2 8 18-3 -18 27 -4 27 -14 18 -22 11 -11-31 5-14 -9-24L89 215l-14-21 17-31h43l19 1 -3-5L124 141 93 144l59-36 -5-9 -22 16 -14-6 37-36 41 13 41-1L257 63l16 4 36 85 -13 30L276 185z"/></g><polygon fill="#333333" points="283 51 176 0 61 35 2 140 13 225 71 306 201 324 292 264 328 155 "/><polygon fill="#77C043" points="226 200 230 213 223 203 221 197 "/><polygon fill="#77C043" points="209 195 222 224 242 233 256 231 236 228 229 218 225 212 222 207 213 196 "/><polygon fill="#77C043" points="237 218 247 220 256 208 251 204 240 208 234 208 "/><polygon fill="#77C043" points="241 268 253 264 253 267 264 262 275 243 270 241 273 234 267 235 262 243 256 240 247 251 235 254 230 264 225 274 232 271 "/><polygon fill="#77C043" points="63 109 61 109 59 106 58 103 58 99 54 99 56 97 53 97 51 99 53 102 53 105 55 105 57 108 54 109 53 111 54 113 52 115 56 113 63 114 63 111 "/><polygon fill="#77C043" points="52 106 51 104 49 104 47 105 45 106 45 108 47 108 45 111 47 112 48 111 51 110 51 107 "/><polygon fill="#77C043" points="190 184 188 184 187 189 188 190 191 189 "/><polygon fill="#77C043" points="263 138 227 54 211 50 184 71 144 72 104 59 67 94 81 101 103 85 108 94 88 106 80 106 74 101 75 107 70 109 65 114 61 117 53 118 59 124 49 130 48 139 60 138 69 128 83 124 96 140 119 140 115 148 90 148 48 148 31 178 45 199 71 196 80 219 76 233 87 263 109 252 122 235 127 209 144 183 127 186 110 156 116 154 131 178 155 166 150 160 135 151 142 150 160 159 172 161 177 166 177 173 183 186 186 183 188 175 201 164 204 167 228 193 237 192 230 169 250 167 "/></svg>