<svg version="1.1" xmlns="http://www.w3.org/2000/svg" x="0" y="0" viewBox="0 0 49 50" enable-background="new 0 0 49 50" xml:space="preserve"><path fill="#78C044" d="M0 49.5h28.3L29.2 0 0 0.5V49.5zM16 46.2l-2.5-0.1 -0.1-2.6h2.6L16 46.2zM24.2 34.9L5.6 35.3l-0.1-2.4h18.8L24.2 34.9zM24.2 30.8H5.5v-2.4h18.8L24.2 30.8zM24.3 5.9l-0.1 2.4L5.6 8 5.5 5.9H24.3zM5.5 10.4h18.8v2.3L5.5 12.3 5.5 10.4zM24.3 19.4l-0.1 2.4L5.6 21.5l-0.1-2.1H24.3zM5.5 17.1l0.2-2.3 18.5 0.1 0 2.4L5.5 17.1zM5.6 23.8h18.7l0.1 2.3h-19L5.6 23.8zM32.2 0.5V50L49 49.5V1.1L32.2 0.5zM44.9 5.9l0 2.1 -8.6 0.3 0-2.4H44.9zM36.3 10.4h8.7l0 2 -8.7 0.3V10.4zM44.9 17.1l-8.7 0.2 0-2.4 8.6-0.1L44.9 17.1zM44.9 19.4l0 2.1 -8.6 0.3 0-2.4H44.9zM41.9 46.1l-2.5 0.1 -0.1-2.6h2.6V46.1zM44.9 35.3l-8.6-0.3 0-2.1h8.7L44.9 35.3zM44.9 30.8h-8.7l0-2.4h8.7V30.8zM36.2 26.1l0-2.3h8.6l0.1 2.3H36.2z"/></svg>