<svg xmlns="http://www.w3.org/2000/svg" width="38" height="43" viewBox="0 0 38 43"><g fill="#79bf4a"><path d="M23 2L22 0 19 1 19 13 24 13 23 2M29 7L27 4 25 5 25 13 29 13 29 7M11 7L9 8 8 10 7 13 12 13 11 7M17 3L16 3 14 4 13 13 18 13 17 3M13 15L14 25 18 25 19 20 20 25 24 25 25 15 26 20 27 16 29 17 29 14 22 14 22 20 21 14 17 14 17 21 16 14 9 14 9 20 8 14 5 14 4 21 3 14 0 14 2 25 6 25 6 20 7 25 11 25 13 15M35 14L34 20 33 14 30 14 30 17 32 18 32 25 32 25 36 25 38 14 35 14M28 18L25 25 20 27 18 32 17 26 7 26 7 32 10 39 19 42 27 41 32 31 31 19 28 18"/></g></svg>