<?xml version="1.0" encoding="utf-8"?>
<!-- Generator: Adobe Illustrator 18.1.1, SVG Export Plug-In . SVG Version: 6.00 Build 0)  -->
<!DOCTYPE svg PUBLIC "-//W3C//DTD SVG 1.1//EN" "http://www.w3.org/Graphics/SVG/1.1/DTD/svg11.dtd">
<svg version="1.1" id="Layer_1" xmlns="http://www.w3.org/2000/svg" xmlns:xlink="http://www.w3.org/1999/xlink" x="0px" y="0px"
	 viewBox="0 0 49 50" enable-background="new 0 0 49 50" xml:space="preserve">
<path fill="#78C044" d="M0,49.5h28.3L29.2,0L0,0.5V49.5z M16,46.2l-2.5-0.1l-0.1-2.6h2.6L16,46.2z M24.2,34.9L5.6,35.3l-0.1-2.4
	h18.8L24.2,34.9z M24.2,30.8H5.5v-2.4h18.8L24.2,30.8z M24.3,5.9l-0.1,2.4L5.6,8L5.5,5.9H24.3z M5.5,10.4h18.8v2.3L5.5,12.3
	L5.5,10.4z M24.3,19.4l-0.1,2.4L5.6,21.5l-0.1-2.1H24.3z M5.5,17.1l0.2-2.3l18.5,0.1l0,2.4L5.5,17.1z M5.6,23.8h18.7l0.1,2.3h-19
	L5.6,23.8z"/>
<path fill="#78C044" d="M32.2,0.5V50L49,49.5V1.1L32.2,0.5z M44.9,5.9l0,2.1l-8.6,0.3l0-2.4H44.9z M36.3,10.4h8.7l0,2l-8.7,0.3V10.4
	z M44.9,17.1l-8.7,0.2l0-2.4l8.6-0.1L44.9,17.1z M44.9,19.4l0,2.1l-8.6,0.3l0-2.4H44.9z M41.9,46.1l-2.5,0.1l-0.1-2.6h2.6V46.1z
	 M44.9,35.3l-8.6-0.3l0-2.1h8.7L44.9,35.3z M44.9,30.8h-8.7l0-2.4h8.7V30.8z M36.2,26.1l0-2.3h8.6l0.1,2.3H36.2z"/>
</svg>
