<?xml version="1.0" encoding="utf-8"?>
<!-- Generator: Adobe Illustrator 18.1.1, SVG Export Plug-In . SVG Version: 6.00 Build 0)  -->
<!DOCTYPE svg PUBLIC "-//W3C//DTD SVG 1.1//EN" "http://www.w3.org/Graphics/SVG/1.1/DTD/svg11.dtd">
<svg version="1.1" id="Layer_1" xmlns="http://www.w3.org/2000/svg" xmlns:xlink="http://www.w3.org/1999/xlink" x="0px" y="0px"
	 viewBox="0 0 145 35" enable-background="new 0 0 145 35" xml:space="preserve">
<g>
	<ellipse fill="#414242" cx="3" cy="26.5" rx="3" ry="3"/>
	<path fill="#414242" d="M14.3,2.3h3.6c0,0,10.5,21.7,10.6,21.4C28.5,23.3,33,2.3,33,2.3h2.8l-5.2,27.2h-3.3L16.8,7.8l-4.5,21.7H8.9
		L14.3,2.3z"/>
	<path fill="#414242" d="M52.7,2.3h3.6c0,0,10.5,21.7,10.6,21.4c0.1-0.4,4.6-21.4,4.6-21.4h2.8L69,29.5h-3.3L55.2,7.8l-4.5,21.7
		h-3.4L52.7,2.3z"/>
	<polygon fill="#414242" points="40.4,29.5 37.3,29.5 42.9,2.3 45.9,2.3 	"/>
	<path fill="#414242" d="M105.3,29.5h3.2L104,2.3h-3.7L83.9,29.5h3.7l3.6-6.1h13.2L105.3,29.5z M92.9,20.5l8.7-14.8l2.3,14.8H92.9z"
		/>
	<path fill="#414242" d="M82.7,2.3H86c0,0-1.5,8.8-2.8,14.8c-1.3,6-1.3,8.8-4.7,12.8c-3.4,4-7.1,5.1-7.1,5.1l-1.1-2.8
		c0,0,4.1-2.2,6-4.4s2.5-5.7,3.6-11C81,11.6,82.7,2.3,82.7,2.3z"/>
	<path fill="#414242" d="M129.6,0c-8.5,0-15.4,7-15.4,15.7s6.9,15.7,15.4,15.7s15.4-7,15.4-15.7S138.1,0,129.6,0z M139,23.8
		c-2.4-0.3-3.1-4.2-5.7-4.2c-1,0-1.5,0-5,2c-3.5,2-5.1,2.1-6.3,1.9c-1.2-0.2-4.2-1.8-4-7.4c0.3-5.6,3.4-7.5,6-7.5
		c4,0,6.5,4.9,9.7,5.1c3.6,0.2,3.7-3.5,6.9-3.5c1.7,0,2.7,3.7,2.6,6.2C143.1,18.8,141.4,24.2,139,23.8z"/>
	<path fill="#414242" d="M129,14c-0.9-1.3-1.9-3.3-3.7-3.6c-1.1-0.2-2.8,0.4-3.4,0.8c0,0,1.9,0.2,3.1,1.6l0,0
		c-2.1,0.1-3.1,0.9-3.1,0.9c1,0,2.1,0.4,2.9,0.8c-0.3,0.4-0.5,0.9-0.5,1.5c0,1.4,1,2.4,2.4,2.4c1,0,1.9-0.7,2.2-1.6
		c0.3,0.1,0.6,0.2,0.8,0.2c1,0.1,2-0.3,2.6-0.8C131,16.3,129.9,15.3,129,14z M126.8,16.9c-0.5,0-0.9-0.4-0.9-0.9
		c0-0.5,0.4-0.9,0.9-0.9c0.5,0,0.9,0.4,0.9,0.9C127.6,16.6,127.2,16.9,126.8,16.9z"/>
	<path fill="#414242" d="M141.8,14.5v-2.1c-1.2,0-2.5,1.1-3.5,2.1c-1.4,1.5-4,1.6-4,1.6c0.3,0.2,0.6,0.6,1,0.7
		c0.6,0.4,1.4,0.5,2.6,0.5c0.3,0.7,0.9,1.1,1.7,1.1c1,0,1.8-0.8,1.8-1.9c0-0.5-0.2-0.9-0.5-1.3C141.1,14.9,141.8,14.5,141.8,14.5z
		 M139.5,17.3c-0.4,0-0.7-0.3-0.7-0.7c0-0.4,0.3-0.7,0.7-0.7s0.7,0.3,0.7,0.7C140.2,16.9,139.8,17.3,139.5,17.3z"/>
</g>
</svg>
